<svg fill="none" height="800" viewBox="0 0 800 800" width="800" xmlns="http://www.w3.org/2000/svg"><path d="m0 0h800v800h-800z" fill="#fff"/><g fill="#ff613b"><path d="m483.134 237.651c-2.482.807-5.009 1.464-7.528 2.155-18.691 5.125-25.315 18.062-17.441 35.601 3.236 7.209 4.974 13.753.603 20.882-.585.957-1.321 2.154.771 2.766 6.872 2.031 10.641-.567 11.093-7.679.235-2.917-.224-5.849-1.339-8.556-1.516-3.547-3.095-7.014-4.522-10.57-3.875-9.611.558-19.064 10.516-22.38 3.343-1.117 6.739-2.092 10.135-3.023 12.307-3.379 17.424-12.796 13.487-24.926-1.206-3.48-2.717-6.848-4.514-10.064-2.997-5.612-2.048-11.003 2.208-15.49 4.008-4.221 9.231-5.71 14.578-7.289 9.079-2.66 19.223-4.433 21.192-16.164.709-4.256 2.385-4.115 5.515-2.66 10.871 4.894 21.396 4.433 31.699-1.871 10.862-6.597 17.424-15.961 19.357-25.945.275-10.41-4.433-17.025-12.724-19.507-3.352-1.02-4.974-2.545-5.799-6.048-2.004-8.503-8.867-13.504-17.468-13.07-2.279.116-3.299-.434-4.008-2.598-2.013-6.2066-6.437-10.3208-12.219-13.0785-1.28-.6962-2.724-1.0341-4.18-.9779s-2.87.5043-4.093 1.2971c-3.883 2.1917-6.983 5.5433-8.867 9.5852-3.165 6.6591-6.534 13.1761-8.388 20.3941-4.185 16.271-.886 30.405 11.909 41.763 3.032 2.661 3.413 5.223 2.004 8.867-2.572 6.73-8.406 8.557-14.374 10.162-4.149 1.117-8.361 1.977-12.281 3.848-12.475 5.941-16.386 17.034-10.409 29.447 1.319 2.598 2.503 5.261 3.546 7.981.644 1.676.934 3.468.852 5.262s-.535 3.552-1.329 5.163c-.795 1.611-1.914 3.039-3.288 4.197-1.373 1.157-2.971 2.017-4.694 2.526zm34.28-106.811c1.267-12.13 6.067-23.621 13.806-33.0473 1.72-2.0749 3.848-3.733 6.748-2.004 2.598 1.5429 3.919 3.7153 3.192 6.9163-.861 3.895-2.293 7.642-4.247 11.119-1.197 2.128-1.472 4.106 1.028 5.471 2.27 1.25 4.602 2.926 7.023.248 2.11-2.436 4.548-4.566 7.244-6.331 2.66-1.631 5.604-2.66 8.246-1.223 2.891 1.551 2.723 4.877 2.492 7.847-.275 3.547-2.438 6.207-4.159 9.106-1.427 2.377-2.66 4.558.683 6.535 2.66 1.596 4.815 2.909 7.413-.514 3.547-4.664 8.565-6.304 11.474-4.513 2.731 1.684 2.89 7.093.691 12.414-4.211 10.197-11.527 17.139-21.591 21.449-3.374 1.551-7.075 2.256-10.783 2.055-3.707-.201-7.311-1.302-10.497-3.208-11.465-6.783-18.852-16.537-18.763-32.32z"/><path d="m284.071 131.797c-4.301.063-3.352 3.547-3.547 6.119-.936 9.056.777 18.189 4.93 26.29 6.757 13.017 16.51 22.168 32.054 22.771 3.653.142 4.611 1.099 4.611 4.69 0 12.325 6.304 19.995 18.151 22.487 3.138.656 6.384.887 9.585 1.215 3.547.399 7.093.576 10.516 1.161 7.59 1.268 11.66 8.584 8.353 15.58-3.99 8.441-7.174 16.927-6.367 26.485.399 4.717 2.111 8.397 6.101 11.27 5.32 3.813 11.119 4.744 17.441 4.62 8.911-.169 14.107 4.309 15.703 12.981.364 1.96.648 3.946 1.197 5.843.887 2.98 3.671 2.51 5.755 2.492 1.57 0 4.141-.168 3.902-2.873-.648-7.271-1.916-14.311-8.309-19.161-5.568-4.212-11.952-5.205-18.718-5.17-6.952 0-12.875-3.813-13.3-8.982-.515-6.127 0-12.139 3.05-17.849 2.323-4.372 5.098-8.867 4.433-14.187-.521-3.825-2.203-7.398-4.82-10.236-2.616-2.839-6.04-4.806-9.81-5.636-6.757-1.495-13.626-2.426-20.536-2.785-7.892-.567-12.236-5.32-12.414-13.211-.053-2.306.098-4.611 0-6.908-.115-1.233.127-2.473.696-3.574.569-1.1 1.441-2.014 2.514-2.633 3.485-2.199 5.843-5.391 7.759-8.946 7.306-13.576 5.958-27.16-.258-40.602-1.844-3.999-3.945-8.131-8.086-10.295-1.703-.887-4.123-2.58-5.861-.381-1.392 1.773-.124 3.697 1.108 5.409 4.268 5.913 6.974 12.809 7.865 20.048.94 7.164.417 14.187-4.203 20.598-.187-.714-.323-1.44-.408-2.172-.47-9.896-3.085-19.348-6.437-28.57-1.179-3.227-2.252-6.739-5.001-9.168-2.093-1.845-4.726-4.088-7.307-2.288-2.58 1.8-.283 4.487.674 6.615 5.595 12.351 8.734 25.182 7.892 38.828-.151 2.385.213 5.782-2.243 6.473-2.802.789-3.654-2.722-4.895-4.673-7.094-11.146-9.612-23.728-11.181-36.594-.461-3.733-3.547-6.765-6.642-6.145-4.132.834-2.536 4.336-2.305 6.695 1.268 13.097 4.673 25.608 11.288 37.117.558.967 1.977 2.146.789 3.21s-2.252-.381-3.104-1.099c-5.484-4.512-9.696-10.377-12.218-17.016-2.51-6.73-3.033-13.691-2.66-20.811.15-3.644-2.581-7.076-5.737-7.032z"/><path d="m622.665 362.498c-3.254-3.608-7.581-5.772-12.343-5.071-5.435.798-4.664-1.029-3.023-4.602 2.013-4.525 2.767-9.509 2.181-14.427-.647-6.207-5.506-9.204-11.527-7.608-6.73 1.774-10.038 6.615-12.361 12.582-.532 1.357-.674 3.547-2.465 3.45-2.172-.089-2.066-2.501-2.296-3.982-.666-4.563-.206-9.221 1.339-13.566 2.58-7.723 1.897-14.941-4.434-21.148-4.593-4.478-10.055-6.889-15.96-8.867-3.92-1.303-5.498-3.946-4.478-8.157.745-3.042 2.225-5.702 3.547-8.468 3.653-7.741 2.172-14.507-4.39-20.199-6.561-5.693-14.311-6.34-21.174-1.667-5.161 3.546-8.033 8.743-10.259 14.391-.949 2.412-1.596 4.956-3.307 7.031-1.933 2.341-3.849 2.891-6.083.373-1.836-2.066-3.485-4.265-5.125-6.491-3.29-4.433-7.865-7.244-13.487-6.154-5.32 1.038-8.956 4.496-10.241 10.047-1.171 5.089-2.439 10.152-2.377 15.428.054 4.522 1.987 5.808 6.429 4.913 3.715-.745 3.414-3.707 3.547-6.048.442-4.268 1.186-8.499 2.225-12.662.111-.842.451-1.638.982-2.301.532-.663 1.235-1.167 2.033-1.458 2.066-.674 3.006 1.126 3.928 2.482 1.651 2.59 3.607 4.971 5.826 7.094 7.386 6.659 19.622 3.804 23.4-5.32 2.092-5.072 3.804-10.41 7.918-14.4 1.773-1.694 3.485-3.893 6.207-3.219 3.086.763 4.637 3.343 5.524 6.269.71 2.216.591 4.614-.337 6.748-1.25 2.961-2.58 5.914-3.591 8.964-2.776 8.353.195 14.462 8.432 17.628 1.721.656 3.485 1.206 5.205 1.871 9.328 3.609 13.416 10.95 10.57 20.5-1.907 6.376-2.563 12.574-1.091 19.002.656 2.829-.559 2.979-2.66 1.986-2.099-.973-4.381-1.487-6.695-1.507-5.32-.133-11.872 3.44-13.078 7.094-1.313 3.928 1.454 8.689 6.916 12.245 4.85 3.148 9.966 5.462 15.827 5.746 2.829.133 3.104 1.01 1.419 3.272-3.347 4.378-6.121 9.167-8.255 14.249-1.259 3.103-3.174 6.384-.842 10.011 2.997 4.673 9.753 6.029 15.073 3.085 2.918-1.596 4.727-6.1 7.981-5.32 3.068.718 3.68 5.32 5.914 7.839 3.547 3.954 9.346 5.834 13.735 4.211 4.389-1.622 7.413-6.774 7.094-12.325-.278-3.055-.924-6.065-1.925-8.964-1.48-4.868-4.433-8.92-7.466-12.84 1.57-1.339 2.74-.567 3.893-.434 3.68.425 7.342.691 10.968-.461 5.853-1.845 7.227-6.331 3.157-10.845z"/><path d="m498.465 482.531c-2.119.097-4.256-.603-6.393-.603-18.948 0-37.888-.683-56.837-1.002-25.085-.417-50.178-1.171-75.263-1.446-13.584-.15-27.177-.647-40.788-.656-10.046 0-20.093-.78-30.148-.425-1.445.053-2.899-.142-3.281 1.649-.638 2.944 5.001 9.621 8.238 9.869 9.975.771 19.986.452 29.97 1.587 11.678 1.321 23.533.967 35.22 1.773 13.691.932 27.346-.133 41.027.887 13.682 1.02 27.745.124 41.604.701 15.899.665 31.753 2.287 47.971 1.33 2.66 0 5.568.062 8.485 0 5.374-.151 6.562-1.614 6.464-7.094-.08-4.336-1.543-6.819-6.269-6.57z"/><path d="m418.272 155.765c.299.191.567.424.798.692-.231-.268-.499-.501-.798-.692-.727 8.672 5.232 17.424 13.416 19.72l2.297.887c2.66 1.507 2.039 2.784.186 4.797-9.993 10.818-14.134 30.626-1.383 44.884 7.217 8.069 6.641 19.047-.541 27.133-1.974 2.143-3.708 4.495-5.17 7.014-3.848 6.908-3.546 14.187 1.242 19.197s9.62 9.701 11.642 16.759c.931 3.263 4.859 2.491 7.28 1.587 2.66-.993.47-3.174-.045-4.682-1.63-4.489-4.348-8.504-7.909-11.686-7.253-6.793-7.555-13.886-.399-20.935 11.527-11.332 9.186-26.601 1.366-35.708-5.125-6.003-7.324-12.697-6.269-20.394 1.232-9.017 6.88-20.802 18.15-22.282 2.877-.503 5.678-1.37 8.335-2.581 7.856-3.21 12.219-9.629 16.174-16.847 3.023-5.48-1.57-7.918-6.509-9.248-6.792-1.845-15.703 0-19.711 6.26l-.195.257c-.417.16-.949.213-1.224.497-3.546 3.724-3.609 3.741-5.16-1.1-1.397-4.298-3.898-8.154-7.253-11.181-2.315-2.022-4.727-3.786-6.482-6.358-1.756-2.571-2.252-4.965-5.95-4.903-3.697.062-4.043 3.378-4.77 5.852-1.176 3.657-1.569 7.521-1.153 11.341.009.576.018 1.144.035 1.72zm1.694 3.29c-.033-.465-.113-.926-.239-1.375.126.449.206.91.239 1.375 0 .31.044.629.062.957-.018-.328-.035-.647-.062-.957z"/><path d="m540.637 211.317c-8.114-1.064-13.806 3.085-18.47 8.929-4.984 6.206-6.385 13.708-6.934 21.484-.523 7.378 4.699 12.042 11.429 8.867 10.508-4.921 23.87-14.994 22.513-28.924.346-6.925-1.773-9.47-8.538-10.356zm-.887 11.323c-.887 9.487-7.759 14.24-15.615 19.587 1.029-9.754 3.822-17.264 11.642-22.168 1.02-.638 2.137-1.773 3.272-1.179 1.446.763.79 2.483.674 3.76z"/><path d="m314.653 257.762c1.923.957 3.775 2.05 5.542 3.272 2.605 1.643 5.627 2.504 8.707 2.482 6.101-.053 6.42-.425 5.577-6.694-.328-2.43-.212-4.904-.461-7.333-.886-8.752-4.717-15.907-12.325-20.456-5.754-3.441-12.263-5.515-17.734-9.559-.955-.684-2.101-1.051-3.276-1.051s-2.321.367-3.276 1.051c-1.774 1.33-.142 3.042.106 4.611.141 1.868.158 3.743.053 5.613.745 11.562 4.239 22.531 17.087 28.064zm-5.001-27.665c10.277 3.547 15.526 11.305 15.455 23.001.142 2.731-.94 2.447-3.068 1.667-10.64-3.902-14.728-12.192-15.801-22.664-.328-3.166 1.383-2.714 3.414-2.004z"/><path d="m557.005 232.624c-.887 2.589 0 3.822 2.421 4.939 3.786 1.773 7.581.248 11.323.354 8.681.258 17.149-1.064 23.621-7.873 3.459-3.636 8.096-7.094 6.136-12.822-2.207-6.446-8.538-5.249-13.016-5.852-12.015-.124-26.716 10.41-30.485 21.254zm33.411-14.187c.887.957-.045 1.773-.461 2.376-4.052 5.888-9.754 9.195-17.734 10.366-.228-.004-.452-.067-.648-.184-.196-.116-.358-.283-.469-.481-.506-.807 0-1.464.478-2.058 4.345-5.391 9.311-9.753 16.653-10.365.798-.089 1.578-.328 2.181.319z"/><path d="m299.561 119.517c2.483-.116 3.831-1.073 3.946-3.316.124-2.723-3.653-7.05-6.26-7.014-3.13.053-4.434 2.394-4.327 4.903.142 4.23 4.513 3.733 6.641 5.427z"/><path d="m315.602 115.438c1.773-.239 3.254-1.241 3.263-3.237.017-2.801-4.15-6.517-6.934-6.517-1.083.068-2.1.544-2.846 1.332s-1.164 1.83-1.171 2.916c-.035 1.959 5.196 5.79 7.688 5.506z"/><path d="m285.542 121.024c1.552.559 2.935-.949 3.113-2.598.266-2.412-4.283-6.384-7.936-6.304-1.649.39-2.846 2.527-2.456 4.504.718 3.636 4.602 3.44 7.279 4.398z"/><path d="m328.228 112.494c1.507 1.96 3.769 3.547 5.373 1.109 1.348-2.031 0-4.496-2.66-5.471l-1.48-1.038c-.603-1.445-1.215-2.855-2.909-.949-3.192 2.412-2.642 4.478 1.676 6.349z"/><path d="m504.912 444.837c.319-19.223-.887-38.465-1.073-57.697-.249-24.393-.151-48.769-.124-73.17 0-4.062-1.313-6.447-5.844-6.296-2.427-.038-4.85-.23-7.253-.576-17.243-1.774-34.516-3.11-51.819-4.008-12.05-.63-24.118-1.233-36.186-1.286-3.759 0-7.563-1.037-11.385.089-2.128.629-3.183 1.543-2.988 3.821.771 8.128 1.091 16.292.958 24.455l.044 57.636c0 1.153.603 2.722-.656 3.369-1.454.736-2.022-.975-2.855-1.729-2.492-2.252-4.567-5.054-7.617-6.597-11.14-5.696-23.369-8.943-35.867-9.523-13.301-.532-26.433-1.569-39.565 1.658-13.3 3.272-26.512 10.552-32.462 22.868-10.587 21.884.834 50.134 8.77 70.936.372.993.798 2.039 2.137 2.11l5.471.275c1.25.94 2.518.692 3.804.08 1.516.16 3.023.434 4.54.461 57.73 1.082 115.459 2.143 173.189 3.183 10.88.195 21.769.266 32.657.39 4.638.887 3.45-3.041 3.778-5.08 1.383-8.389.204-16.936.346-25.369z"/><path d="m267.916 621.88v10.053c0 1.565.431 3.063 2.269 3.199s2.122-1.475 2.383-2.814c.3-1.961.323-3.954.068-5.922-.456-5.392-.373-10.815.249-16.191.885-7.942 5.503-11.005 14.41-10.801 6.467.148 10.211 4.039 12.639 9.633 1.28 3.105 1.998 6.412 2.122 9.769.476 9.644 1.259 19.288-1.044 28.852-.38 1.535-.838 3.05-1.373 4.538-3.517 9.758-10.699 14.75-21.081 15.34-8.554.476-15.736-1.883-21.557-8.282-2.462-2.689-3.71-2.655-6.24.113-8.634 9.36-18.993 9.837-30.112 6.354-6.342-1.997-10.211-6.808-12.48-12.833-3.234-8.747-3.483-17.869-2.95-27.037.073-4.413.575-8.81 1.497-13.127.456-1.754 1.079-3.46 1.861-5.094 3.948-8.566 12.889-9.576 19.628-7.103 4.902 1.793 6.275 6.025 6.808 10.722.703 6.467-.272 12.923 0 19.39.079 1.94 0 4.017 2.428 4.539 1.418.306 2.428-1.645 2.428-4.482 0-5.673-.068-11.425 0-17.132-.038-1.226.034-2.452.216-3.665 1.543-8.566 7.318-10.449 14.227-10.506 1.218.021 2.429.185 3.608.488 6.32 1.486 9.758 5.673 9.996 12.162.125 3.268 0 6.547 0 9.826z"/><path d="m413.54 644.175c.021 4.93-.554 9.844-1.714 14.636-3.551 14.625-12.945 23.146-27.876 25.052-8.33 1.05-16.781.62-24.961-1.271-1.79-.401-3.522-1.03-5.151-1.872-5.9-3.052-8.612-8.646-7.182-14.818 1.134-5.037 5.956-8.362 12.321-8.679 5.673-.284 11.244.851 16.872 1.134 1.368.113 2.745-.029 4.062-.42.416-.099.781-.346 1.03-.694.248-.348.362-.775.32-1.2-.028-.427-.212-.829-.518-1.129-.306-.299-.711-.475-1.139-.494-1.511-.147-3.033-.121-4.538.08-4.014.507-8.077.48-12.083-.08-8.113-1.407-13.854-5.854-16.475-13.547-3.562-10.381-3.279-20.74 2.394-30.395 4.89-8.328 12.481-11.936 22.147-11.233 3.665.273 6.343 2.349 8.612 5.072 2.564 3.063 3.971 3.131 6.581.057 4.141-4.913 9.439-5.787 15.328-4.539 3.403.738 5.4 3.313 6.807 6.286 2.156 4.538 2.996 9.394 3.71 14.296 1.018 7.878 1.503 15.815 1.453 23.758zm-30.884-14.818c0-2.836-1.214-4.357-3.687-4.447-2.723-.08-4.346 1.418-4.402 4.062-.068 2.836 1.486 4.538 4.141 4.538s3.892-1.362 3.948-4.153z"/><path d="m485.824 641.894c.282 5.938-.303 11.885-1.736 17.655-3.653 14.227-13.615 22.839-28.228 24.393-8.126.873-16.34.432-24.326-1.305-2.77-.573-5.385-1.734-7.669-3.403-2.402-1.736-4.116-4.263-4.84-7.137s-.413-5.911.88-8.577c2.405-4.664 6.921-5.912 11.732-6.263 5.582-.42 11.084.805 16.633 1.134 1.364.127 2.739-.031 4.039-.465.457-.098.86-.366 1.13-.748.269-.383.384-.853.322-1.317-.083-.421-.314-.799-.651-1.065s-.758-.403-1.187-.387c-1.52 0-3.052 0-4.538.136-4.119.445-8.278.372-12.379-.216-7.601-1.361-13.127-5.548-15.804-12.695-3.892-10.371-3.597-20.752 1.735-30.634 2.154-3.99 5.457-7.241 9.481-9.331s8.583-2.922 13.086-2.39c3.62.409 6.252 2.292 8.521 4.947 2.757 3.245 3.846 3.404 6.705.102 3.756-4.254 8.351-5.48 13.797-4.765 1.634.197 3.193.797 4.537 1.746 1.345.948 2.433 2.216 3.167 3.689 2.541 4.538 3.404 9.576 4.198 14.625 1.07 7.373 1.537 14.822 1.395 22.271zm-34.605-17.018c-.577-.049-1.157.029-1.701.229-.543.2-1.036.516-1.444.927-.408.412-.721.907-.916 1.452-.196.545-.269 1.127-.216 1.703-.047.57.028 1.144.218 1.683.191.539.493 1.033.887 1.447.394.415.871.741 1.4.958.53.218 1.099.321 1.67.303.573.024 1.143-.075 1.674-.291s1.009-.543 1.403-.959c.393-.416.693-.912.879-1.453.185-.542.253-1.118.197-1.688.045-.554-.028-1.111-.212-1.635-.185-.524-.478-1.003-.86-1.407-.382-.403-.844-.722-1.358-.934-.513-.213-1.065-.316-1.621-.301z"/><path d="m594.982 621.132c-.476 18.584-5.831 35.501-17.642 50.08-8.294 10.211-19.288 14.069-32.313 12.9-4.121-.169-8.14-1.337-11.709-3.403-5.832-3.699-8.578-12.016-5.673-18.313 2.382-5.253 7.159-6.728 12.48-6.807 3.404 0 6.808 1.01 10.211.839 1.362-.068 3.404.466 3.506-1.554.114-2.269-2.031-1.827-3.403-1.906-12.084-.681-18.789-6.286-21.558-18.267-1.828-7.883-2.029-16.056-.59-24.019 1.68-9.349 7.67-11.346 15.113-11.244 6.898.125 11.108 3.835 13.173 10.302 1.402 4.983 2.419 10.065 3.04 15.204.159 1.032.102 2.394 1.498 2.473 1.588.091 1.622-1.384 1.77-2.473.534-4.762 1.429-9.477 2.678-14.103 1.372-4.606 3.494-8.691 8.429-10.393 4.135-1.475 8.653-1.475 12.787 0 3.778 1.328 5.787 4.357 6.808 8.056 1.043 4.125 1.513 8.374 1.395 12.628z"/><path d="m489.636 619.952c-.093-9.205 1.134-18.374 3.642-27.231 3.461-11.55 12.923-13.285 21.92-10.631 2.792.817 4.471 2.996 5.481 5.741 1.16 3.637 1.656 7.454 1.463 11.267-.027 7.073-.474 14.139-1.339 21.16-.63 4.509-.861 9.065-.692 13.615.091 1.611.488 3.165 2.076 3.789 4.868 1.906 5.73 5.912 5.673 10.416-.019 2.294-.305 4.579-.851 6.807-1.792 7.375-6.126 11.176-13.671 12.016-10.041 1.134-17.019-3.325-20.037-13.014-3.131-9.848-3.687-20.105-3.665-33.935z"/><path d="m306.594 631.547c-.112-5.483.18-10.966.874-16.406.237-1.808.644-3.589 1.214-5.321 3.324-10.053 16.156-14.046 24.733-7.704 3.132 2.269 4.63 5.673 5.446 9.247 2.054 9.133 1.838 18.425 1.578 27.695-.002 5.169-.454 10.328-1.351 15.419-1.86 9.224-6.705 13.411-17.971 12.48-7.455-.646-11.029-4.209-12.742-11.572-1.713-7.364-1.781-15.113-1.781-23.838z"/><path d="m323.567 597.112c-1.35-.17-2.723-.272-4.062-.533-2.288-.321-4.384-1.459-5.898-3.205-1.514-1.745-2.345-3.98-2.339-6.291-.079-4.697 2.723-8.215 7.658-9.474 3.183-.834 6.53-.811 9.701.068 2.16.45 4.086 1.659 5.431 3.407 1.345 1.749 2.018 3.921 1.899 6.123 0 4.346-2.497 7.625-6.967 9.077-1.776.453-3.593.731-5.423.828z"/></g></svg>